<svg xmlns="http://www.w3.org/2000/svg" aria-hidden="true" style="position:absolute;width:0;height:0;overflow:hidden">
    <defs>
        <symbol id="eye-off" viewBox="0 0 32 32">
            <path stroke-linecap="round" stroke-linejoin="round" stroke-width="2.88" d="M23.92 23.92A13.43 13.43 0 0 1 16 26.667C6.667 26.667 1.333 16 1.333 16A24.605 24.605 0 0 1 8.08 8.08m5.12-2.427a12.161 12.161 0 0 1 2.8-.32C25.333 5.333 30.667 16 30.667 16a24.646 24.646 0 0 1-2.88 4.253m-8.961-1.426a4.01 4.01 0 0 1-2.855 1.273 3.978 3.978 0 0 1-1.569-.291 3.984 3.984 0 0 1-2.21-2.21 3.995 3.995 0 0 1 .983-4.424M1.333 1.333l29.333 29.333"/>
        </symbol>
        <symbol id="eye" viewBox="0 0 32 32">
            <path stroke-linecap="round" stroke-linejoin="round" stroke-width="2.88" d="M1.333 16S6.666 5.333 16 5.333 30.667 16 30.667 16 25.334 26.667 16 26.667 1.333 16 1.333 16z"/>
            <path stroke-linecap="round" stroke-linejoin="round" stroke-width="2.88" d="M16 20a4 4 0 1 0 0-8 4 4 0 0 0 0 8z"/>
        </symbol>
        <symbol id="minus" viewBox="0 0 32 32">
            <path stroke-linecap="round" stroke-linejoin="round" stroke-width="3" d="M6.667 16h18.667"/>
        </symbol>
        
        <symbol id="plus" viewBox="0 0 32 32">
            <path stroke-linecap="round" stroke-linejoin="round" stroke-width="3" d="M6.667 16h18.667M16 6.667v18.667"/>
        </symbol>
        
        <symbol id="ellips" viewBox="0 0 32 32">
            <path fill="#9be1a0" d="M32 16c0 8.837-7.163 16-16 16S0 24.837 0 16 7.163 0 16 0s16 7.163 16 16z" style="fill:var(--color1, #9be1a0)"/>
        </symbol>

        <symbol id="plus-add-water" viewBox="0 0 32 32">
            <path stroke-linecap="round" stroke-linejoin="round" stroke-width="2.667" d="M16 6.667v18.667M6.667 16h18.667"/>
        </symbol>

        <symbol id="pie-chart-02-1" viewBox="0 0 32 32">
            <path fill="none" stroke="#323f47" stroke-linecap="round" stroke-linejoin="round" stroke-width="2.667" d="M22.933 18.667c.369 0 .554 0 .704.082a.713.713 0 0 1 .293.324c.067.157.05.324.016.659a10.665 10.665 0 0 1-12.694 9.397 10.67 10.67 0 0 1-8.381-8.381 10.666 10.666 0 0 1 9.397-12.694c.334-.034.502-.05.659.016.13.055.257.17.324.293.082.15.082.334.082.704V17.6c0 .373 0 .56.073.703a.67.67 0 0 0 .291.291c.143.073.329.073.703.073h8.533z" style="stroke:var(--color1, #323f47)"/>
            <path fill="none" stroke="#9be1a0" stroke-linecap="round" stroke-linejoin="round" stroke-width="2.667" d="M18.667 3.733c0-.369 0-.554.082-.704a.713.713 0 0 1 .324-.293c.157-.067.324-.05.659-.016a10.67 10.67 0 0 1 9.549 9.549c.033.334.05.502-.016.659a.704.704 0 0 1-.293.324c-.15.082-.334.082-.704.082h-8.533c-.373 0-.56 0-.703-.073a.67.67 0 0 1-.291-.291c-.073-.143-.073-.329-.073-.703V3.734z" style="stroke:var(--color2, #9be1a0)"/>
        </symbol>

        <symbol id="chevron-left-1" viewBox="0 0 32 32">
            <path stroke-linecap="round" stroke-linejoin="round" stroke-width="3.556" d="m20 24-8-8 8-8"/>
        </symbol>

        <symbol id="chevron-left" viewBox="0 0 32 32">
            <path stroke-linecap="round" stroke-linejoin="round" stroke-width="3.556" d="m12 24 8-8-8-8"/>
        </symbol>

        <symbol id="add-water-green" viewBox="0 0 32 32">
            <path fill="#9be1a0" d="M16 0c8.837 0 16 7.163 16 16s-7.163 16-16 16S0 24.837 0 16 7.163 0 16 0z" style="fill:var(--color2, #9be1a0)"/>
            <path fill="none" stroke="#323f47" stroke-linecap="round" stroke-linejoin="round" stroke-width="1.6" d="M16 10.286v11.429M10.286 16h11.429" style="stroke:var(--color1, #323f47)"/>
        </symbol>

        <symbol id="arrow-down" viewBox="0 0 32 32">
            <path stroke-linecap="round" stroke-linejoin="round" stroke-width="3.2" d="m8 12 8 8 8-8"/>
        </symbol>

        <symbol id="eye" viewBox="0 0 32 32">
            <path stroke-linecap="round" stroke-linejoin="round" stroke-width="2.88" d="M1.333 16S6.666 5.333 16 5.333 30.667 16 30.667 16 25.334 26.667 16 26.667 1.333 16 1.333 16z"/>
            <path stroke-linecap="round" stroke-linejoin="round" stroke-width="2.88" d="M16 20a4 4 0 1 0 0-8 4 4 0 0 0 0 8z"/>
        </symbol>

        <symbol id="upload" viewBox="0 0 32 32">
            <path stroke-linecap="round" stroke-linejoin="round" stroke-width="2.88" d="M28 20v5.333A2.668 2.668 0 0 1 25.333 28H6.666a2.668 2.668 0 0 1-2.667-2.667V20M22.666 10.667 15.999 4l-6.667 6.667M16 4v16"/>
        </symbol>

        <symbol id="close" viewBox="0 0 32 32">
            <path stroke-linecap="round" stroke-linejoin="round" stroke-width="3.429" d="M24 8 8 24M8 8l16 16"/>
        </symbol>

        <symbol id="log-out" viewBox="0 0 32 32" fill="none">
            <path stroke="currentColor" stroke-linecap="round" stroke-linejoin="round" stroke-width="3" d="M12 28H6.667A2.668 2.668 0 0 1 4 25.333V6.666a2.668 2.668 0 0 1 2.667-2.667H12M21.334 22.667 28.001 16l-6.667-6.667M28 16H12"/>
        </symbol>
        <symbol id="login" viewBox="0 0 32 32">
            <path fill="none" stroke="currentColor" stroke-linejoin="round" stroke-linecap="round" stroke-miterlimit="4" stroke-width="3" d="M20.001 28.001h5.333c1.473-0.001 2.666-1.194 2.667-2.667v-18.667c-0.001-1.473-1.194-2.666-2.667-2.667h-5.333M10.667 22.668l9.478-6.7c0.067-0.007-9.366-6.647-9.478-6.634M4.028 16.119l15.973-0.118"></path>
</symbol>

        <symbol id="settings" viewBox="0 0 32 32" fill="none">
            <path stroke="currentColor" stroke-linecap="round" stroke-linejoin="round" stroke-width="3" d="M16 20a4 4 0 1 0 0-8 4 4 0 0 0 0 8z"/>
            <path  stroke="currentColor" stroke-linecap="round" stroke-linejoin="round" stroke-width="3" d="M25.867 20a2.205 2.205 0 0 0 .44 2.427l.08.08a2.672 2.672 0 0 1 .782 1.886 2.672 2.672 0 0 1-1.648 2.465 2.672 2.672 0 0 1-2.907-.579l-.08-.08a2.197 2.197 0 0 0-2.427-.44 2.2 2.2 0 0 0-1.334 2.013v.227a2.668 2.668 0 0 1-5.334 0v-.12a2.196 2.196 0 0 0-1.44-2.013 2.205 2.205 0 0 0-2.427.44l-.08.08a2.672 2.672 0 0 1-1.886.782 2.672 2.672 0 0 1-2.465-1.648 2.672 2.672 0 0 1 .579-2.907l.08-.08a2.197 2.197 0 0 0 .44-2.427 2.2 2.2 0 0 0-2.013-1.334H4a2.668 2.668 0 0 1 0-5.334h.12a2.196 2.196 0 0 0 2.013-1.44 2.2 2.2 0 0 0-.44-2.427l-.08-.08a2.666 2.666 0 0 1 .865-4.352 2.668 2.668 0 0 1 2.908.579l.08.08a2.197 2.197 0 0 0 2.427.44H12a2.2 2.2 0 0 0 1.334-2.013v-.227a2.668 2.668 0 0 1 5.334 0v.12a2.203 2.203 0 0 0 1.334 2.013 2.208 2.208 0 0 0 2.427-.44l.08-.08a2.672 2.672 0 0 1 1.886-.782 2.672 2.672 0 0 1 2.465 1.647 2.668 2.668 0 0 1-.579 2.907l-.08.08a2.197 2.197 0 0 0-.44 2.427v.107a2.2 2.2 0 0 0 2.013 1.334h.227a2.668 2.668 0 0 1 0 5.334h-.12a2.203 2.203 0 0 0-2.013 1.334z"/>
        </symbol>

        <symbol id="trash" viewBox="0 0 32 32">
            <path stroke-linecap="round" stroke-linejoin="round" stroke-width="3" d="M12 4h8"/>
            <path stroke-linecap="round" stroke-linejoin="round" stroke-width="3.6" d="M4 8h24m-2.667 0-.935 14.026c-.14 2.104-.21 3.156-.665 3.954a4.007 4.007 0 0 1-1.731 1.62c-.826.4-1.881.4-3.99.4h-4.025c-2.109 0-3.163 0-3.99-.4a4.001 4.001 0 0 1-1.731-1.62c-.455-.798-.525-1.85-.665-3.954L6.666 8"/>
        </symbol>

        <symbol id="edit" viewBox="0 0 32 32">
            <path stroke-linecap="round" stroke-linejoin="round" stroke-width="3.6" d="M22.666 4a3.766 3.766 0 0 1 4.109-.817 3.781 3.781 0 0 1 2.041 2.04 3.764 3.764 0 0 1 0 2.886 3.756 3.756 0 0 1-.817 1.223l-18 18-7.333 2 2-7.333 18-18z"/>
        </symbol>
        
        <symbol id="eye-off" viewBox="0 0 32 32">
            <path stroke-linecap="round" stroke-linejoin="round" stroke-width="2.88" d="M23.92 23.92A13.43 13.43 0 0 1 16 26.667C6.667 26.667 1.333 16 1.333 16A24.605 24.605 0 0 1 8.08 8.08m5.12-2.427a12.161 12.161 0 0 1 2.8-.32C25.333 5.333 30.667 16 30.667 16a24.646 24.646 0 0 1-2.88 4.253m-8.961-1.426a4.01 4.01 0 0 1-2.855 1.273 3.978 3.978 0 0 1-1.569-.291 3.984 3.984 0 0 1-2.21-2.21 3.995 3.995 0 0 1 .983-4.424M1.333 1.333l29.333 29.333"/>
        </symbol>

        <symbol id="water-glass" viewBox="0 0 32 32">
            <path fill="#9be1a0" stroke="none" d="M27.568 5.226c-.097-.321-.26-.616-.479-.868s-.488-.452-.79-.589a2.176 2.176 0 0 0-.958-.21H6.711a1.903 1.903 0 0 0-.958.197 2.299 2.299 0 0 0-.803.604 2.356 2.356 0 0 0-.479.866c-.1.318-.131.654-.091.984l2.123 18.377a5.16 5.16 0 0 0 1.67 3.255 4.946 4.946 0 0 0 3.327 1.313h9.062a4.97 4.97 0 0 0 3.34-1.313 5.275 5.275 0 0 0 1.657-3.255l1.152-10.331v-.157l.893-7.876a2.66 2.66 0 0 0-.039-.998zM14.492 25.375h-1.295a3.7 3.7 0 0 1-2.266-.945 3.718 3.718 0 0 1-1.165-2.192l-.311-2.258c-.04-.344.055-.69.264-.965s.515-.455.854-.503c.338-.048.682.04.957.246s.46.512.515.854l.311 2.232c.035.244.154.467.337.63.181.168.415.266.66.276h1.295c.343 0 .673.138.915.384a1.325 1.325 0 0 1 0 1.856 1.286 1.286 0 0 1-.915.384h-.155zm10.357-12.116c-2.732.538-5.062.643-7.535-1.313-3.068-2.455-6.784-1.667-10.357-.381L6.31 5.999a.38.38 0 0 1 0-.171.34.34 0 0 1 .091-.144.266.266 0 0 1 .129-.105.273.273 0 0 1 .155 0h18.798a.526.526 0 0 1 .13.105.308.308 0 0 1 .078.144.29.29 0 0 1 0 .184l-.842 7.246z" style="fill:var(--color1, #9be1a0)"/>
        </symbol>

        <symbol id="en-flag" viewBox="0 0 28 28">
            <path fill="#fff" style="fill: var(--color1, #fff)" d="M2.286 4.571h27.429c1.262 0 2.286 1.023 2.286 2.286v18.286c0 1.262-1.023 2.286-2.286 2.286h-27.429c-1.262 0-2.286-1.023-2.286-2.286v-18.286c0-1.262 1.023-2.286 2.286-2.286z"></path>
            <path fill="#0a17a7" style="fill: var(--color2, #0a17a7)" d="M0 4.571h32v22.857h-32v-22.857z"></path>
            <path fill="#fff" style="fill: var(--color1, #fff)" d="M-1.466 2.381l13.656 9.211v-8.545h7.619v8.545l13.656-9.211 1.704 2.527-10.797 7.283h7.627v7.619h-7.627l10.797 7.283-1.704 2.527-13.656-9.211v8.545h-7.619v-8.545l-13.656 9.211-1.704-2.527 10.797-7.283h-7.627v-7.619h7.627l-10.797-7.283 1.704-2.527z"></path>
            <path fill="#e6273e" style="fill: var(--color3, #e6273e)" d="M0 18.286h13.714v9.143h4.571v-9.143h13.714v-4.571h-13.714v-9.143h-4.571v9.143h-13.714v4.571z"></path>
        </symbol>
        <symbol id="icon-AquaTrack" viewBox="0 0 232 32">
            <path
                d="M18.361 22.894h-9.582l-1.536 4.535h-6.546l9.289-25.673h7.241l9.289 25.673h-6.619l-1.536-4.535zM16.752 18.066l-3.182-9.399-3.145 9.399h6.327zM47.263 31.817l-3.291-4.425c-0.975 0.195-1.926 0.293-2.853 0.293-2.414 0-4.632-0.561-6.656-1.682-1.999-1.122-3.596-2.682-4.791-4.681-1.17-2.024-1.755-4.291-1.755-6.802s0.585-4.766 1.755-6.766c1.195-1.999 2.792-3.56 4.791-4.681 2.024-1.122 4.242-1.682 6.656-1.682s4.62 0.561 6.619 1.682c2.024 1.122 3.608 2.682 4.754 4.681 1.17 1.999 1.755 4.254 1.755 6.766 0 2.194-0.451 4.206-1.353 6.034-0.878 1.804-2.109 3.304-3.694 4.498l5.632 6.766h-7.57zM34.317 14.519c0 2.267 0.61 4.084 1.829 5.449 1.243 1.341 2.901 2.011 4.974 2.011 2.048 0 3.682-0.683 4.901-2.048 1.243-1.365 1.865-3.17 1.865-5.413 0-2.267-0.622-4.072-1.865-5.413-1.219-1.365-2.853-2.048-4.901-2.048-2.072 0-3.73 0.67-4.974 2.011-1.219 1.341-1.829 3.157-1.829 5.449zM63.577 1.755v15.36c0 1.536 0.378 2.718 1.134 3.547s1.865 1.243 3.328 1.243c1.463 0 2.584-0.414 3.365-1.243s1.17-2.011 1.17-3.547v-15.36h6.254v15.323c0 2.292-0.488 4.23-1.463 5.815s-2.292 2.779-3.95 3.584c-1.634 0.805-3.462 1.207-5.486 1.207s-3.84-0.39-5.449-1.17c-1.585-0.805-2.84-1.999-3.767-3.584-0.926-1.609-1.39-3.56-1.39-5.851v-15.323h6.254zM98.835 22.894h-9.582l-1.536 4.535h-6.546l9.289-25.673h7.241l9.289 25.673h-6.619l-1.536-4.535zM97.226 18.066l-3.182-9.399-3.145 9.399h6.327zM127.92 1.755v5.010h-6.802v20.663h-6.254v-20.663h-6.802v-5.010h19.858zM143.786 27.429l-5.339-9.691h-1.499v9.691h-6.254v-25.673h10.496c2.024 0 3.742 0.354 5.157 1.061 1.438 0.707 2.511 1.682 3.218 2.926 0.707 1.219 1.061 2.584 1.061 4.096 0 1.707-0.488 3.23-1.463 4.571-0.951 1.341-2.365 2.292-4.242 2.853l5.925 10.167h-7.058zM136.947 13.312h3.877c1.146 0 1.999-0.28 2.56-0.841 0.585-0.561 0.878-1.353 0.878-2.377 0-0.975-0.293-1.743-0.878-2.304-0.561-0.561-1.414-0.841-2.56-0.841h-3.877v6.363zM170.167 22.894h-9.582l-1.536 4.535h-6.546l9.289-25.673h7.241l9.289 25.673h-6.619l-1.536-4.535zM168.558 18.066l-3.182-9.399-3.145 9.399h6.327zM179.723 14.555c0-2.536 0.549-4.791 1.646-6.766 1.097-1.999 2.621-3.547 4.571-4.645 1.975-1.122 4.206-1.682 6.693-1.682 3.048 0 5.656 0.805 7.826 2.414s3.621 3.803 4.352 6.583h-6.875c-0.512-1.073-1.243-1.89-2.194-2.45-0.926-0.561-1.987-0.841-3.182-0.841-1.926 0-3.486 0.67-4.681 2.011s-1.792 3.133-1.792 5.376c0 2.243 0.597 4.035 1.792 5.376s2.755 2.011 4.681 2.011c1.195 0 2.255-0.28 3.182-0.841 0.951-0.561 1.682-1.378 2.194-2.45h6.875c-0.731 2.779-2.182 4.974-4.352 6.583-2.17 1.585-4.779 2.377-7.826 2.377-2.487 0-4.718-0.549-6.693-1.646-1.95-1.122-3.474-2.67-4.571-4.645s-1.646-4.23-1.646-6.766zM223.159 27.429l-8.631-11.337v11.337h-6.254v-25.673h6.254v11.264l8.558-11.264h7.351l-9.947 12.581 10.313 13.093h-7.643z">
            </path>
        </symbol>
        <symbol id="ua-flag" viewBox="0 0 32 32">
<path fill="#ffe15a" style="fill: var(--color1, #ffe15a)" d="M0 24.086c0 1.324 1.073 2.397 2.397 2.397h27.207c1.324 0 2.397-1.073 2.397-2.397v-8.086h-32v8.086z"></path>
<path fill="#4173cd" style="fill: var(--color2, #4173cd)" d="M29.603 5.517h-27.207c-1.324 0-2.397 1.073-2.397 2.397v8.086h32v-8.086c0-1.324-1.073-2.397-2.397-2.397z"></path>
</symbol>
        <symbol id="us-flag" viewBox="0 0 32 32">
<path fill="#f5f5f5" style="fill: var(--color1, #f5f5f5)" d="M29.603 5.517h-27.207c-1.324 0-2.397 1.073-2.397 2.397v16.172c0 1.324 1.073 2.397 2.397 2.397h27.207c1.324 0 2.397-1.073 2.397-2.397v-16.172c0-1.324-1.073-2.397-2.397-2.397z"></path>
<path fill="#ff4b55" style="fill: var(--color2, #ff4b55)" d="M0.132 7.13h31.736c-0.325-0.939-1.216-1.613-2.265-1.613h-27.207c-1.049 0-1.94 0.674-2.265 1.613z"></path>
<path fill="#ff4b55" style="fill: var(--color2, #ff4b55)" d="M0 11.968h32v1.613h-32v-1.613z"></path>
<path fill="#ff4b55" style="fill: var(--color2, #ff4b55)" d="M0 8.742h32v1.613h-32v-1.613z"></path>
<path fill="#ff4b55" style="fill: var(--color2, #ff4b55)" d="M0 16.255c0 0.305 0.247 0.552 0.552 0.552h31.448v-1.613h-32v1.061z"></path>
<path fill="#ff4b55" style="fill: var(--color2, #ff4b55)" d="M0 21.645h32v1.613h-32v-1.613z"></path>
<path fill="#ff4b55" style="fill: var(--color2, #ff4b55)" d="M31.868 24.87h-31.736c0.325 0.939 1.216 1.613 2.265 1.613h27.207c1.049 0 1.94-0.674 2.265-1.613z"></path>
<path fill="#ff4b55" style="fill: var(--color2, #ff4b55)" d="M0 18.419h32v1.613h-32v-1.613z"></path>
<path fill="#41479b" style="fill: var(--color3, #41479b)" d="M0.552 16.806h13.793c0.305 0 0.552-0.247 0.552-0.552v-10.186c0-0.305-0.247-0.552-0.552-0.552h-11.948c-1.324 0-2.397 1.073-2.397 2.397v8.341c0 0.305 0.247 0.552 0.552 0.552z"></path>
<path fill="#f5f5f5" style="fill: var(--color1, #f5f5f5)" d="M1.549 6.784l0.122 0.366 0.386 0.003c0.050 0 0.071 0.064 0.030 0.094l-0.311 0.229 0.117 0.368c0.015 0.048-0.039 0.087-0.080 0.058l-0.314-0.224-0.314 0.224c-0.041 0.029-0.095-0.010-0.080-0.058l0.117-0.368-0.311-0.229c-0.040-0.030-0.019-0.093 0.030-0.094l0.386-0.003 0.122-0.366c0.016-0.048 0.083-0.048 0.099-0z"></path>
<path fill="#f5f5f5" style="fill: var(--color1, #f5f5f5)" d="M1.549 8.699l0.122 0.366 0.386 0.003c0.050 0 0.071 0.064 0.030 0.094l-0.311 0.229 0.117 0.368c0.015 0.048-0.039 0.087-0.080 0.058l-0.314-0.224-0.314 0.225c-0.041 0.029-0.095-0.010-0.080-0.058l0.117-0.368-0.311-0.229c-0.040-0.030-0.019-0.093 0.030-0.094l0.386-0.003 0.122-0.366c0.016-0.047 0.083-0.047 0.099-0z"></path>
<path fill="#f5f5f5" style="fill: var(--color1, #f5f5f5)" d="M1.549 10.615l0.122 0.366 0.386 0.003c0.050 0 0.071 0.064 0.030 0.094l-0.311 0.229 0.117 0.368c0.015 0.048-0.039 0.087-0.080 0.058l-0.314-0.224-0.314 0.225c-0.041 0.029-0.095-0.010-0.080-0.058l0.117-0.368-0.311-0.229c-0.040-0.030-0.019-0.093 0.030-0.094l0.386-0.003 0.122-0.366c0.016-0.047 0.083-0.047 0.099-0z"></path>
<path fill="#f5f5f5" style="fill: var(--color1, #f5f5f5)" d="M1.549 12.531l0.122 0.366 0.386 0.003c0.050 0 0.071 0.064 0.030 0.094l-0.311 0.229 0.117 0.368c0.015 0.048-0.039 0.087-0.080 0.058l-0.314-0.224-0.314 0.225c-0.041 0.029-0.095-0.010-0.080-0.058l0.117-0.368-0.311-0.229c-0.040-0.030-0.019-0.093 0.030-0.094l0.386-0.003 0.122-0.366c0.016-0.047 0.083-0.047 0.099-0z"></path>
<path fill="#f5f5f5" style="fill: var(--color1, #f5f5f5)" d="M1.549 14.447l0.122 0.366 0.386 0.003c0.050 0 0.071 0.064 0.030 0.094l-0.311 0.229 0.117 0.368c0.015 0.048-0.039 0.087-0.080 0.058l-0.314-0.224-0.314 0.225c-0.041 0.029-0.095-0.010-0.080-0.058l0.117-0.368-0.311-0.229c-0.040-0.030-0.019-0.093 0.030-0.094l0.386-0.003 0.122-0.366c0.016-0.047 0.083-0.047 0.099-0z"></path>
<path fill="#f5f5f5" style="fill: var(--color1, #f5f5f5)" d="M3.036 7.723l0.122 0.366 0.386 0.003c0.050 0 0.071 0.064 0.030 0.094l-0.311 0.229 0.116 0.368c0.015 0.048-0.039 0.087-0.080 0.058l-0.314-0.225-0.314 0.225c-0.041 0.029-0.095-0.010-0.080-0.058l0.116-0.368-0.311-0.229c-0.040-0.030-0.019-0.093 0.030-0.094l0.386-0.003 0.122-0.366c0.016-0.047 0.083-0.047 0.099 0z"></path>
<path fill="#f5f5f5" style="fill: var(--color1, #f5f5f5)" d="M3.036 9.639l0.122 0.366 0.386 0.003c0.050 0 0.071 0.064 0.030 0.094l-0.311 0.229 0.116 0.368c0.015 0.048-0.039 0.087-0.080 0.058l-0.314-0.225-0.314 0.225c-0.041 0.029-0.095-0.010-0.080-0.058l0.116-0.368-0.311-0.229c-0.040-0.030-0.019-0.093 0.030-0.094l0.386-0.003 0.122-0.366c0.016-0.047 0.083-0.047 0.099 0z"></path>
<path fill="#f5f5f5" style="fill: var(--color1, #f5f5f5)" d="M3.036 11.555l0.122 0.366 0.386 0.003c0.050 0 0.071 0.064 0.030 0.094l-0.311 0.229 0.116 0.368c0.015 0.048-0.039 0.087-0.080 0.058l-0.314-0.225-0.314 0.225c-0.041 0.029-0.095-0.010-0.080-0.058l0.116-0.368-0.311-0.229c-0.040-0.030-0.019-0.093 0.030-0.094l0.386-0.003 0.122-0.366c0.016-0.047 0.083-0.047 0.099 0z"></path>
<path fill="#f5f5f5" style="fill: var(--color1, #f5f5f5)" d="M3.036 13.471l0.122 0.366 0.386 0.003c0.050 0 0.071 0.064 0.030 0.094l-0.311 0.229 0.116 0.368c0.015 0.048-0.039 0.087-0.080 0.058l-0.314-0.225-0.314 0.225c-0.041 0.029-0.095-0.010-0.080-0.058l0.116-0.368-0.311-0.229c-0.040-0.030-0.019-0.093 0.030-0.094l0.386-0.003 0.122-0.366c0.016-0.047 0.083-0.047 0.099 0z"></path>
<path fill="#f5f5f5" style="fill: var(--color1, #f5f5f5)" d="M4.523 6.784l0.122 0.366 0.386 0.003c0.050 0 0.071 0.064 0.030 0.094l-0.311 0.229 0.117 0.368c0.015 0.048-0.039 0.087-0.080 0.058l-0.314-0.224-0.314 0.224c-0.041 0.029-0.095-0.010-0.080-0.058l0.117-0.368-0.311-0.229c-0.040-0.030-0.019-0.093 0.030-0.094l0.386-0.003 0.122-0.366c0.016-0.047 0.083-0.047 0.099 0z"></path>
<path fill="#f5f5f5" style="fill: var(--color1, #f5f5f5)" d="M4.523 8.699l0.122 0.366 0.386 0.003c0.050 0 0.071 0.064 0.030 0.094l-0.311 0.229 0.117 0.368c0.015 0.048-0.039 0.087-0.080 0.058l-0.314-0.225-0.314 0.225c-0.041 0.029-0.095-0.010-0.080-0.058l0.117-0.368-0.311-0.229c-0.040-0.030-0.019-0.093 0.030-0.094l0.386-0.003 0.122-0.366c0.016-0.047 0.083-0.047 0.099 0z"></path>
<path fill="#f5f5f5" style="fill: var(--color1, #f5f5f5)" d="M4.523 10.615l0.122 0.366 0.386 0.003c0.050 0 0.071 0.064 0.030 0.094l-0.311 0.229 0.117 0.368c0.015 0.048-0.039 0.087-0.080 0.058l-0.314-0.225-0.314 0.225c-0.041 0.029-0.095-0.010-0.080-0.058l0.117-0.368-0.311-0.229c-0.040-0.030-0.019-0.093 0.030-0.094l0.386-0.003 0.122-0.366c0.016-0.047 0.083-0.047 0.099 0z"></path>
<path fill="#f5f5f5" style="fill: var(--color1, #f5f5f5)" d="M4.523 12.531l0.122 0.366 0.386 0.003c0.050 0 0.071 0.064 0.030 0.094l-0.311 0.229 0.117 0.368c0.015 0.048-0.039 0.087-0.080 0.058l-0.314-0.225-0.314 0.225c-0.041 0.029-0.095-0.010-0.080-0.058l0.117-0.368-0.311-0.229c-0.040-0.030-0.019-0.093 0.030-0.094l0.386-0.003 0.122-0.366c0.016-0.047 0.083-0.047 0.099 0z"></path>
<path fill="#f5f5f5" style="fill: var(--color1, #f5f5f5)" d="M4.523 14.447l0.122 0.366 0.386 0.003c0.050 0 0.071 0.064 0.030 0.094l-0.311 0.229 0.117 0.368c0.015 0.048-0.039 0.087-0.080 0.058l-0.314-0.225-0.314 0.225c-0.041 0.029-0.095-0.010-0.080-0.058l0.117-0.368-0.311-0.229c-0.040-0.030-0.019-0.093 0.030-0.094l0.386-0.003 0.122-0.366c0.016-0.047 0.083-0.047 0.099 0z"></path>
<path fill="#f5f5f5" style="fill: var(--color1, #f5f5f5)" d="M6.011 7.723l0.122 0.366 0.386 0.003c0.050 0 0.071 0.064 0.030 0.094l-0.311 0.229 0.117 0.368c0.015 0.048-0.039 0.087-0.080 0.058l-0.314-0.225-0.314 0.225c-0.041 0.029-0.095-0.010-0.080-0.058l0.117-0.368-0.311-0.229c-0.040-0.030-0.019-0.093 0.030-0.094l0.386-0.003 0.122-0.366c0.016-0.047 0.083-0.047 0.099 0z"></path>
<path fill="#f5f5f5" style="fill: var(--color1, #f5f5f5)" d="M6.011 9.639l0.122 0.366 0.386 0.003c0.050 0 0.071 0.064 0.030 0.094l-0.311 0.229 0.117 0.368c0.015 0.048-0.039 0.087-0.080 0.058l-0.314-0.225-0.314 0.225c-0.041 0.029-0.095-0.010-0.080-0.058l0.117-0.368-0.311-0.229c-0.040-0.030-0.019-0.093 0.030-0.094l0.386-0.003 0.122-0.366c0.016-0.047 0.083-0.047 0.099 0z"></path>
<path fill="#f5f5f5" style="fill: var(--color1, #f5f5f5)" d="M6.011 11.555l0.122 0.366 0.386 0.003c0.050 0 0.071 0.064 0.030 0.094l-0.311 0.229 0.117 0.368c0.015 0.048-0.039 0.087-0.080 0.058l-0.314-0.225-0.314 0.225c-0.041 0.029-0.095-0.010-0.080-0.058l0.117-0.368-0.311-0.229c-0.040-0.030-0.019-0.093 0.030-0.094l0.386-0.003 0.122-0.366c0.016-0.047 0.083-0.047 0.099 0z"></path>
<path fill="#f5f5f5" style="fill: var(--color1, #f5f5f5)" d="M6.011 13.471l0.122 0.366 0.386 0.003c0.050 0 0.071 0.064 0.030 0.094l-0.311 0.229 0.117 0.368c0.015 0.048-0.039 0.087-0.080 0.058l-0.314-0.225-0.314 0.225c-0.041 0.029-0.095-0.010-0.080-0.058l0.117-0.368-0.311-0.229c-0.040-0.030-0.019-0.093 0.030-0.094l0.386-0.003 0.122-0.366c0.016-0.047 0.083-0.047 0.099 0z"></path>
<path fill="#f5f5f5" style="fill: var(--color1, #f5f5f5)" d="M7.498 6.784l0.122 0.366 0.386 0.003c0.050 0 0.071 0.064 0.030 0.094l-0.311 0.229 0.117 0.368c0.015 0.048-0.039 0.087-0.080 0.058l-0.314-0.224-0.314 0.224c-0.041 0.029-0.095-0.010-0.080-0.058l0.117-0.368-0.311-0.229c-0.040-0.030-0.019-0.093 0.030-0.094l0.386-0.003 0.122-0.366c0.016-0.048 0.083-0.048 0.099-0z"></path>
<path fill="#f5f5f5" style="fill: var(--color1, #f5f5f5)" d="M7.498 8.699l0.122 0.366 0.386 0.003c0.050 0 0.071 0.064 0.030 0.094l-0.311 0.229 0.117 0.368c0.015 0.048-0.039 0.087-0.080 0.058l-0.314-0.225-0.314 0.225c-0.041 0.029-0.095-0.010-0.080-0.058l0.117-0.368-0.311-0.229c-0.040-0.030-0.019-0.093 0.030-0.094l0.386-0.003 0.122-0.366c0.016-0.047 0.083-0.047 0.099 0z"></path>
<path fill="#f5f5f5" style="fill: var(--color1, #f5f5f5)" d="M7.498 10.615l0.122 0.366 0.386 0.003c0.050 0 0.071 0.064 0.030 0.094l-0.311 0.229 0.117 0.368c0.015 0.048-0.039 0.087-0.080 0.058l-0.314-0.225-0.314 0.225c-0.041 0.029-0.095-0.010-0.080-0.058l0.117-0.368-0.311-0.229c-0.040-0.030-0.019-0.093 0.030-0.094l0.386-0.003 0.122-0.366c0.016-0.047 0.083-0.047 0.099 0z"></path>
<path fill="#f5f5f5" style="fill: var(--color1, #f5f5f5)" d="M7.498 12.531l0.122 0.366 0.386 0.003c0.050 0 0.071 0.064 0.030 0.094l-0.311 0.229 0.117 0.368c0.015 0.048-0.039 0.087-0.080 0.058l-0.314-0.225-0.314 0.225c-0.041 0.029-0.095-0.010-0.080-0.058l0.117-0.368-0.311-0.229c-0.040-0.030-0.019-0.093 0.030-0.094l0.386-0.003 0.122-0.366c0.016-0.047 0.083-0.047 0.099 0z"></path>
<path fill="#f5f5f5" style="fill: var(--color1, #f5f5f5)" d="M7.498 14.447l0.122 0.366 0.386 0.003c0.050 0 0.071 0.064 0.030 0.094l-0.311 0.229 0.117 0.368c0.015 0.048-0.039 0.087-0.080 0.058l-0.314-0.225-0.314 0.225c-0.041 0.029-0.095-0.010-0.080-0.058l0.117-0.368-0.311-0.229c-0.040-0.030-0.019-0.093 0.030-0.094l0.386-0.003 0.122-0.366c0.016-0.047 0.083-0.047 0.099 0z"></path>
<path fill="#f5f5f5" style="fill: var(--color1, #f5f5f5)" d="M8.985 7.723l0.122 0.366 0.386 0.003c0.050 0 0.071 0.064 0.030 0.094l-0.311 0.229 0.117 0.368c0.015 0.048-0.039 0.087-0.080 0.058l-0.314-0.225-0.314 0.225c-0.041 0.029-0.095-0.010-0.080-0.058l0.117-0.368-0.311-0.229c-0.040-0.030-0.020-0.093 0.030-0.094l0.386-0.003 0.122-0.366c0.016-0.047 0.083-0.047 0.099 0z"></path>
<path fill="#f5f5f5" style="fill: var(--color1, #f5f5f5)" d="M8.985 9.639l0.122 0.366 0.386 0.003c0.050 0 0.071 0.064 0.030 0.094l-0.311 0.229 0.117 0.368c0.015 0.048-0.039 0.087-0.080 0.058l-0.314-0.225-0.314 0.225c-0.041 0.029-0.095-0.010-0.080-0.058l0.117-0.368-0.311-0.229c-0.040-0.030-0.020-0.093 0.030-0.094l0.386-0.003 0.122-0.366c0.016-0.047 0.083-0.047 0.099 0z"></path>
<path fill="#f5f5f5" style="fill: var(--color1, #f5f5f5)" d="M8.985 11.555l0.122 0.366 0.386 0.003c0.050 0 0.071 0.064 0.030 0.094l-0.311 0.229 0.117 0.368c0.015 0.048-0.039 0.087-0.080 0.058l-0.314-0.225-0.314 0.225c-0.041 0.029-0.095-0.010-0.080-0.058l0.117-0.368-0.311-0.229c-0.040-0.030-0.020-0.093 0.030-0.094l0.386-0.003 0.122-0.366c0.016-0.047 0.083-0.047 0.099 0z"></path>
<path fill="#f5f5f5" style="fill: var(--color1, #f5f5f5)" d="M8.985 13.471l0.122 0.366 0.386 0.003c0.050 0 0.071 0.064 0.030 0.094l-0.311 0.229 0.117 0.368c0.015 0.048-0.039 0.087-0.080 0.058l-0.314-0.225-0.314 0.225c-0.041 0.029-0.095-0.010-0.080-0.058l0.117-0.368-0.311-0.229c-0.040-0.030-0.020-0.093 0.030-0.094l0.386-0.003 0.122-0.366c0.016-0.047 0.083-0.047 0.099 0z"></path>
<path fill="#f5f5f5" style="fill: var(--color1, #f5f5f5)" d="M10.472 6.784l0.122 0.366 0.386 0.003c0.050 0 0.071 0.064 0.030 0.094l-0.311 0.229 0.117 0.368c0.015 0.048-0.039 0.087-0.080 0.058l-0.314-0.224-0.314 0.224c-0.041 0.029-0.095-0.010-0.080-0.058l0.117-0.368-0.311-0.229c-0.040-0.030-0.020-0.093 0.030-0.094l0.386-0.003 0.122-0.366c0.016-0.047 0.083-0.047 0.099 0z"></path>
<path fill="#f5f5f5" style="fill: var(--color1, #f5f5f5)" d="M10.472 8.699l0.122 0.366 0.386 0.003c0.050 0 0.071 0.064 0.030 0.094l-0.311 0.229 0.117 0.368c0.015 0.048-0.039 0.087-0.080 0.058l-0.314-0.225-0.314 0.225c-0.041 0.029-0.095-0.010-0.080-0.058l0.117-0.368-0.311-0.229c-0.040-0.030-0.020-0.093 0.030-0.094l0.386-0.003 0.122-0.366c0.016-0.047 0.083-0.047 0.099 0z"></path>
<path fill="#f5f5f5" style="fill: var(--color1, #f5f5f5)" d="M10.472 10.615l0.122 0.366 0.386 0.003c0.050 0 0.071 0.064 0.030 0.094l-0.311 0.229 0.117 0.368c0.015 0.048-0.039 0.087-0.080 0.058l-0.314-0.225-0.314 0.225c-0.041 0.029-0.095-0.010-0.080-0.058l0.117-0.368-0.311-0.229c-0.040-0.030-0.020-0.093 0.030-0.094l0.386-0.003 0.122-0.366c0.016-0.047 0.083-0.047 0.099 0z"></path>
<path fill="#f5f5f5" style="fill: var(--color1, #f5f5f5)" d="M10.472 12.531l0.122 0.366 0.386 0.003c0.050 0 0.071 0.064 0.030 0.094l-0.311 0.229 0.117 0.368c0.015 0.048-0.039 0.087-0.080 0.058l-0.314-0.225-0.314 0.225c-0.041 0.029-0.095-0.010-0.080-0.058l0.117-0.368-0.311-0.229c-0.040-0.030-0.020-0.093 0.030-0.094l0.386-0.003 0.122-0.366c0.016-0.047 0.083-0.047 0.099 0z"></path>
<path fill="#f5f5f5" style="fill: var(--color1, #f5f5f5)" d="M10.472 14.447l0.122 0.366 0.386 0.003c0.050 0 0.071 0.064 0.030 0.094l-0.311 0.229 0.117 0.368c0.015 0.048-0.039 0.087-0.080 0.058l-0.314-0.225-0.314 0.225c-0.041 0.029-0.095-0.010-0.080-0.058l0.117-0.368-0.311-0.229c-0.040-0.030-0.020-0.093 0.030-0.094l0.386-0.003 0.122-0.366c0.016-0.047 0.083-0.047 0.099 0z"></path>
<path fill="#f5f5f5" style="fill: var(--color1, #f5f5f5)" d="M11.959 7.723l0.122 0.366 0.386 0.003c0.050 0 0.071 0.064 0.030 0.094l-0.311 0.229 0.117 0.368c0.015 0.048-0.039 0.087-0.080 0.058l-0.314-0.225-0.314 0.225c-0.041 0.029-0.095-0.010-0.080-0.058l0.117-0.368-0.311-0.229c-0.040-0.030-0.020-0.093 0.030-0.094l0.386-0.003 0.122-0.366c0.016-0.047 0.083-0.047 0.099 0z"></path>
<path fill="#f5f5f5" style="fill: var(--color1, #f5f5f5)" d="M11.959 9.639l0.122 0.366 0.386 0.003c0.050 0 0.071 0.064 0.030 0.094l-0.311 0.229 0.117 0.368c0.015 0.048-0.039 0.087-0.080 0.058l-0.314-0.225-0.314 0.225c-0.041 0.029-0.095-0.010-0.080-0.058l0.117-0.368-0.311-0.229c-0.040-0.030-0.020-0.093 0.030-0.094l0.386-0.003 0.122-0.366c0.016-0.047 0.083-0.047 0.099 0z"></path>
<path fill="#f5f5f5" style="fill: var(--color1, #f5f5f5)" d="M11.959 11.555l0.122 0.366 0.386 0.003c0.050 0 0.071 0.064 0.030 0.094l-0.311 0.229 0.117 0.368c0.015 0.048-0.039 0.087-0.080 0.058l-0.314-0.225-0.314 0.225c-0.041 0.029-0.095-0.010-0.080-0.058l0.117-0.368-0.311-0.229c-0.040-0.030-0.020-0.093 0.030-0.094l0.386-0.003 0.122-0.366c0.016-0.047 0.083-0.047 0.099 0z"></path>
<path fill="#f5f5f5" style="fill: var(--color1, #f5f5f5)" d="M11.959 13.471l0.122 0.366 0.386 0.003c0.050 0 0.071 0.064 0.030 0.094l-0.311 0.229 0.117 0.368c0.015 0.048-0.039 0.087-0.080 0.058l-0.314-0.225-0.314 0.225c-0.041 0.029-0.095-0.010-0.080-0.058l0.117-0.368-0.311-0.229c-0.040-0.030-0.020-0.093 0.030-0.094l0.386-0.003 0.122-0.366c0.016-0.047 0.083-0.047 0.099 0z"></path>
<path fill="#f5f5f5" style="fill: var(--color1, #f5f5f5)" d="M13.446 6.784l0.122 0.366 0.386 0.003c0.050 0 0.071 0.064 0.030 0.094l-0.311 0.229 0.117 0.368c0.015 0.048-0.039 0.087-0.080 0.058l-0.314-0.224-0.314 0.224c-0.041 0.029-0.095-0.010-0.080-0.058l0.117-0.368-0.311-0.229c-0.040-0.030-0.020-0.093 0.030-0.094l0.386-0.003 0.122-0.366c0.016-0.047 0.083-0.047 0.099 0z"></path>
<path fill="#f5f5f5" style="fill: var(--color1, #f5f5f5)" d="M13.446 8.699l0.122 0.366 0.386 0.003c0.050 0 0.071 0.064 0.030 0.094l-0.311 0.229 0.117 0.368c0.015 0.048-0.039 0.087-0.080 0.058l-0.314-0.225-0.314 0.225c-0.041 0.029-0.095-0.010-0.080-0.058l0.117-0.368-0.311-0.229c-0.040-0.030-0.020-0.093 0.030-0.094l0.386-0.003 0.122-0.366c0.016-0.047 0.083-0.047 0.099 0z"></path>
<path fill="#f5f5f5" style="fill: var(--color1, #f5f5f5)" d="M13.446 10.615l0.122 0.366 0.386 0.003c0.050 0 0.071 0.064 0.030 0.094l-0.311 0.229 0.117 0.368c0.015 0.048-0.039 0.087-0.080 0.058l-0.314-0.225-0.314 0.225c-0.041 0.029-0.095-0.010-0.080-0.058l0.117-0.368-0.311-0.229c-0.040-0.030-0.020-0.093 0.030-0.094l0.386-0.003 0.122-0.366c0.016-0.047 0.083-0.047 0.099 0z"></path>
<path fill="#f5f5f5" style="fill: var(--color1, #f5f5f5)" d="M13.446 12.531l0.122 0.366 0.386 0.003c0.050 0 0.071 0.064 0.030 0.094l-0.311 0.229 0.117 0.368c0.015 0.048-0.039 0.087-0.080 0.058l-0.314-0.225-0.314 0.225c-0.041 0.029-0.095-0.010-0.080-0.058l0.117-0.368-0.311-0.229c-0.040-0.030-0.020-0.093 0.030-0.094l0.386-0.003 0.122-0.366c0.016-0.047 0.083-0.047 0.099 0z"></path>
<path fill="#f5f5f5" style="fill: var(--color1, #f5f5f5)" d="M13.446 14.447l0.122 0.366 0.386 0.003c0.050 0 0.071 0.064 0.030 0.094l-0.311 0.229 0.117 0.368c0.015 0.048-0.039 0.087-0.080 0.058l-0.314-0.225-0.314 0.225c-0.041 0.029-0.095-0.010-0.080-0.058l0.117-0.368-0.311-0.229c-0.040-0.030-0.020-0.093 0.030-0.094l0.386-0.003 0.122-0.366c0.016-0.047 0.083-0.047 0.099 0z"></path>
</symbol>
<symbol id="google" viewBox="0 0 32 32">
            <path fill="#4285f4" style="fill: var(--color1, #4285f4)" d="M31.619 16.299c0-1.311-0.106-2.268-0.337-3.26h-14.971v5.917h8.787c-0.177 1.471-1.134 3.685-3.26 5.173l-0.030 0.198 4.733 3.667 0.328 0.033c3.012-2.782 4.748-6.874 4.748-11.729z"></path>
            <path fill="#34a853" style="fill: var(--color2, #34a853)" d="M16.311 31.89c4.305 0 7.919-1.417 10.559-3.862l-5.032-3.898c-1.346 0.939-3.154 1.595-5.528 1.595-4.217 0-7.795-2.781-9.071-6.626l-0.187 0.016-4.922 3.809-0.064 0.179c2.622 5.209 8.008 8.788 14.244 8.788z"></path>
            <path fill="#fbbc05" style="fill: var(--color3, #fbbc05)" d="M7.24 19.099c-0.337-0.992-0.531-2.055-0.531-3.154s0.195-2.161 0.514-3.154l-0.009-0.211-4.984-3.87-0.163 0.078c-1.081 2.161-1.701 4.589-1.701 7.158s0.62 4.996 1.701 7.157l5.173-4.004z"></path>
            <path fill="#eb4335" style="fill: var(--color4, #eb4335)" d="M16.311 6.165c2.994 0 5.014 1.293 6.165 2.374l4.5-4.394c-2.764-2.569-6.36-4.146-10.665-4.146-6.236 0-11.622 3.579-14.244 8.787l5.156 4.004c1.293-3.845 4.872-6.626 9.089-6.626z"></path>
        </symbol>
        <symbol id="cart" viewBox="0 0 32 32">
<path d="M6.909 24.364h19.273c0.16-0 0.297-0.104 0.345-0.248l0.001-0.003 3.636-11.273c0.012-0.034 0.018-0.073 0.018-0.114 0-0.2-0.162-0.362-0.362-0.362-0.001 0-0.001 0-0.002 0h-3.284c-0.198 3.455-3.048 6.182-6.535 6.182s-6.337-2.727-6.534-6.164l-0.001-0.017h-3.225l-0.567-4.418-0.222-1.455c-0.031-0.174-0.18-0.306-0.36-0.309h-6.182c-0.603 0-1.091 0.488-1.091 1.091s0.488 1.091 1.091 1.091v0h6.084c0.774 6.045 0.185 1.922 2.219 15.273h-4.304c-1.004 0-1.818 0.814-1.818 1.818s0.814 1.818 1.818 1.818v0h3.676c-0.474 0.463-0.767 1.108-0.767 1.822 0 1.406 1.14 2.545 2.545 2.545s2.545-1.14 2.545-2.545c0-0.714-0.294-1.359-0.767-1.821l-0.001-0h10.99c-0.471 0.462-0.763 1.105-0.763 1.816 0 1.404 1.139 2.543 2.543 2.543s2.543-1.139 2.543-2.543c0-1.404-1.139-2.543-2.543-2.543-0.001 0-0.002 0-0.003 0h-20c-0.603 0-1.091-0.488-1.091-1.091s0.488-1.091 1.091-1.091v0zM12.364 30.182c-0.603 0-1.091-0.488-1.091-1.091s0.488-1.091 1.091-1.091c0.603 0 1.091 0.488 1.091 1.091v0c-0.001 0.602-0.489 1.090-1.091 1.091h-0zM28 29.091c0 0.602-0.488 1.091-1.091 1.091s-1.091-0.488-1.091-1.091c0-0.602 0.488-1.091 1.091-1.091v0c0.602 0.001 1.090 0.489 1.091 1.091v0z"></path>
<path d="M12.727 29.091c0 0.201-0.163 0.364-0.364 0.364s-0.364-0.163-0.364-0.364c0-0.201 0.163-0.364 0.364-0.364s0.364 0.163 0.364 0.364z"></path>
<path d="M27.273 29.091c0 0.201-0.163 0.364-0.364 0.364s-0.364-0.163-0.364-0.364c0-0.201 0.163-0.364 0.364-0.364s0.364 0.163 0.364 0.364z"></path>
<path d="M20 15.636c2.008 0 3.636-1.628 3.636-3.636s-1.628-3.636-3.636-3.636c-2.008 0-3.636 1.628-3.636 3.636v0c0.002 2.007 1.629 3.634 3.636 3.636h0zM18.88 11.847c-0.417-0.212-0.698-0.638-0.698-1.129 0-0.697 0.565-1.263 1.262-1.263h0.192v-0.364c0-0.201 0.163-0.364 0.364-0.364s0.364 0.163 0.364 0.364v0 0.364h0.192c0.697 0.001 1.262 0.566 1.262 1.262v0c0 0.201-0.163 0.364-0.364 0.364s-0.364-0.163-0.364-0.364v0c-0-0.295-0.24-0.535-0.535-0.535h-0.192v1.593l0.757 0.378c0.417 0.212 0.698 0.638 0.698 1.129 0 0.697-0.565 1.263-1.263 1.263h-0.192v0.364c0 0.201-0.163 0.364-0.364 0.364s-0.364-0.163-0.364-0.364v0-0.364h-0.192c-0.697-0.001-1.262-0.566-1.262-1.262v-0c0-0.201 0.163-0.364 0.364-0.364s0.364 0.163 0.364 0.364v0c0 0.295 0.24 0.535 0.535 0.535h0.192v-1.593z"></path>
<path d="M21.091 13.283c0-0.001 0-0.001 0-0.002 0-0.208-0.119-0.388-0.293-0.476l-0.003-0.001-0.431-0.216v1.23h0.192c0.295-0 0.535-0.24 0.535-0.535v-0z"></path>
<path d="M19.636 10.182h-0.192c-0.296 0-0.535 0.24-0.535 0.535 0 0.208 0.119 0.389 0.293 0.477l0.003 0.001 0.431 0.216z"></path>
<path d="M20 17.818c3.213 0 5.818-2.605 5.818-5.818s-2.605-5.818-5.818-5.818c-3.213 0-5.818 2.605-5.818 5.818v0c0.004 3.212 2.606 5.814 5.818 5.818h0zM20 7.636c2.41 0 4.364 1.954 4.364 4.364s-1.954 4.364-4.364 4.364c-2.41 0-4.364-1.954-4.364-4.364v0c0.003-2.409 1.955-4.361 4.363-4.364h0z"></path>
<path d="M20 5.091c0.201 0 0.364-0.163 0.364-0.364v0-4c0-0.201-0.163-0.364-0.364-0.364s-0.364 0.163-0.364 0.364v0 4c0 0.201 0.163 0.364 0.364 0.364v0z"></path>
<path d="M22.182 5.818c0.201 0 0.364-0.163 0.364-0.364v0-2.909c0-0.201-0.163-0.364-0.364-0.364s-0.364 0.163-0.364 0.364v0 2.909c0 0.201 0.163 0.364 0.364 0.364v0z"></path>
<path d="M17.818 5.818c0.201 0 0.364-0.163 0.364-0.364v0-2.909c0-0.201-0.163-0.364-0.364-0.364s-0.364 0.163-0.364 0.364v0 2.909c0 0.201 0.163 0.364 0.364 0.364v0z"></path>
</symbol>

<symbol id="sfcart" viewBox="0 0 32 32">
<path fill="#7f7494" style="fill: var(--color1, #7f7494)" d="M26.072 24.163h-17.558c-0.455 0-0.901-0.158-1.236-0.465-0.453-0.416-0.656-1.023-0.553-1.617l0.727-4.105 0.996 0.176-0.726 4.103c-0.048 0.276 0.059 0.561 0.291 0.74 0.138 0.106 0.31 0.157 0.483 0.157h17.703v0.885c0 0.070-0.057 0.126-0.126 0.126z"></path>
<path fill="#2d2128" style="fill: var(--color2, #2d2128)" opacity="0.32" d="M8.455 18.104l-0.996-0.176-0.299 1.692 0.956 0.403z"></path>
<path fill="#78777e" style="fill: var(--color3, #78777e)" d="M7.317 21.621h17.822c0.585 0 1.060 0.474 1.060 1.060v0.976h-17.721c-0.79 0-1.39-0.712-1.255-1.491l0.094-0.545z"></path>
<path fill="#d7d6d9" style="fill: var(--color4, #d7d6d9)" d="M5.896 11.645l-0.852-3.819c-0.018-0.079 0.043-0.154 0.123-0.154h26.045c0.088 0 0.15 0.088 0.118 0.171l-4.036 10.668c-0.018 0.047-0.062 0.079-0.112 0.082l-19.514 0.993-1.772-7.94z"></path>
<path fill="#78777e" style="fill: var(--color3, #78777e)" d="M7.432 7.672l0.484-2.847c0.24-1.413-0.848-2.702-2.281-2.702h-5.1c-0.070 0-0.127 0.057-0.127 0.127v1.607c0 0.070 0.057 0.127 0.127 0.127h4.262c0.58 0 1.005 0.546 0.864 1.108l-0.643 2.551c-0.005 0.019-0.005 0.039-0.001 0.059l2.416-0.029z"></path>
<path fill="#78777e" style="fill: var(--color3, #78777e)" d="M11.413 28.201c0 1.398-1.133 2.532-2.532 2.532s-2.532-1.133-2.532-2.532c0-1.398 1.133-2.532 2.532-2.532s2.532 1.133 2.532 2.532z"></path>
<path fill="#78777e" style="fill: var(--color3, #78777e)" d="M27.781 28.201c0 1.398-1.133 2.532-2.532 2.532s-2.532-1.133-2.532-2.532c0-1.398 1.133-2.532 2.532-2.532s2.532 1.133 2.532 2.532z"></path>
<path fill="#78777e" style="fill: var(--color3, #78777e)" d="M30.615 9.735h-25.145l-0.426-1.909c-0.018-0.079 0.043-0.154 0.123-0.154h26.045c0.088 0 0.15 0.088 0.118 0.171l-0.716 1.891z"></path>
<path fill="#3f3c43" style="fill: var(--color5, #3f3c43)" d="M9.998 28.201c0 0.617-0.5 1.116-1.117 1.116s-1.117-0.5-1.117-1.116c0-0.617 0.5-1.116 1.117-1.116s1.117 0.5 1.117 1.116z"></path>
<path fill="#3f3c43" style="fill: var(--color5, #3f3c43)" d="M26.366 28.201c0 0.617-0.5 1.116-1.116 1.116s-1.116-0.5-1.116-1.116c0-0.617 0.5-1.116 1.116-1.116s1.116 0.5 1.116 1.116z"></path>
<path fill="#6eac34" style="fill: var(--color7, #6eac34)" d="M15.434 1.945c0.841-0.402 1.767-0.677 2.764-0.677 3.296 0 5.968 2.672 5.968 5.968s-2.672 5.968-5.968 5.968-5.968-2.672-5.968-5.968c0-1.747 0.75-3.318 1.946-4.41 0 0 0.87-0.696 1.258-0.881z"></path>
<path fill="#2d2128" style="fill: var(--color2, #2d2128)" opacity="0.32" d="M31.211 7.672h-2.292l-3.422 9.043c-0.018 0.047-0.062 0.079-0.112 0.082l-18.135 0.923 0.416 1.866 19.514-0.993c0.050-0.003 0.094-0.035 0.112-0.082l4.036-10.668c0.031-0.083-0.030-0.171-0.118-0.171z"></path>
<path fill="#000" style="fill: var(--color6, #000)" d="M18.198 13.679c3.552 0 6.443-2.89 6.443-6.443s-2.89-6.443-6.443-6.443c-1.038 0-2.070 0.253-2.984 0.731-0.232 0.121-0.322 0.408-0.2 0.64s0.408 0.322 0.64 0.2c0.779-0.408 1.658-0.623 2.544-0.623 3.029 0 5.494 2.465 5.494 5.494s-2.465 5.494-5.494 5.494-5.494-2.465-5.494-5.494c0-1.541 0.653-3.020 1.792-4.059 0.194-0.177 0.207-0.477 0.031-0.67s-0.477-0.207-0.67-0.031c-1.335 1.218-2.101 2.953-2.101 4.76 0 3.552 2.89 6.443 6.443 6.443z"></path>
<path fill="#000" style="fill: var(--color6, #000)" d="M17.726 9.726c0.126 0 0.246-0.050 0.335-0.139l3.507-3.507c0.185-0.185 0.185-0.486 0-0.671s-0.486-0.185-0.671 0l-3.171 3.171-1.691-1.691c-0.185-0.185-0.486-0.185-0.671 0s-0.185 0.486 0 0.671l2.026 2.026c0.089 0.089 0.21 0.139 0.335 0.139z"></path>
<path fill="#000" style="fill: var(--color6, #000)" d="M31.91 7.385c-0.095-0.137-0.25-0.218-0.416-0.218h-5.303c-0.279 0-0.506 0.226-0.506 0.506s0.227 0.506 0.506 0.506h4.571l-0.398 1.051h-5.037c-0.279 0-0.506 0.226-0.506 0.506s0.227 0.506 0.506 0.506h4.654l-2.974 7.859-18.84 0.959-0.482-2.161c-0.061-0.273-0.331-0.445-0.604-0.384s-0.444 0.331-0.384 0.604l0.554 2.48-0.429 2.482c-0.090 0.519 0.053 1.047 0.392 1.449s0.835 0.634 1.361 0.634h17.721c0.279 0 0.506-0.227 0.506-0.506v-0.976c0-0.863-0.702-1.566-1.566-1.566h-7.957c-0.279 0-0.506 0.227-0.506 0.506s0.227 0.506 0.506 0.506h7.957c0.305 0 0.554 0.248 0.554 0.554v0.47h-17.215c-0.227 0-0.441-0.1-0.588-0.273s-0.208-0.402-0.169-0.625l0.022-0.125h6.852c0.279 0 0.506-0.227 0.506-0.506s-0.226-0.506-0.506-0.506h-6.677l0.181-1.045 19.193-0.977c0.201-0.010 0.376-0.138 0.448-0.326l4.13-10.916c0.059-0.155 0.037-0.33-0.057-0.466z"></path>
<path fill="#000" style="fill: var(--color6, #000)" d="M4.606 7.734c0.002 0.013 0.004 0.025 0.006 0.038 0.001 0.004 0.001 0.007 0.002 0.011l0.458 2.054c0 0 0 0.001 0 0.001l1.091 4.889c0.053 0.236 0.262 0.396 0.493 0.396 0.037 0 0.074-0.004 0.111-0.012 0.273-0.061 0.444-0.331 0.384-0.604l-0.952-4.266h4.806c0.279 0 0.506-0.226 0.506-0.506s-0.226-0.506-0.506-0.506h-5.032l-0.235-1.051h4.357c0.279 0 0.506-0.226 0.506-0.506s-0.226-0.506-0.506-0.506h-1.967l0.384-2.256c0.14-0.821-0.088-1.656-0.625-2.292s-1.322-1.001-2.155-1.001h-5.227c-0.279 0-0.506 0.227-0.506 0.506v1.86c0 0.279 0.227 0.506 0.506 0.506h4.389c0.119 0 0.23 0.054 0.303 0.148s0.099 0.215 0.070 0.33l-0.651 2.58c-0 0.002-0.001 0.003-0.001 0.005-0.002 0.007-0.003 0.014-0.004 0.020-0.002 0.011-0.004 0.022-0.006 0.033-0.001 0.006-0.001 0.013-0.002 0.019-0.001 0.012-0.002 0.024-0.002 0.036-0 0.006 0 0.012 0 0.018 0 0.012 0.001 0.025 0.002 0.037 0 0.006 0.001 0.011 0.002 0.017zM4.895 3.478h-3.883v-0.849h4.721c0.534 0 1.037 0.234 1.382 0.642s0.49 0.943 0.401 1.47l-0.412 2.426h-1.346l0.492-1.951c0.106-0.42 0.014-0.858-0.253-1.2s-0.668-0.538-1.102-0.538z"></path>
<path fill="#000" style="fill: var(--color6, #000)" d="M8.98 25.195c-1.657 0-3.006 1.348-3.006 3.006s1.348 3.006 3.006 3.006 3.006-1.348 3.006-3.006-1.348-3.006-3.006-3.006zM8.98 30.258c-1.134 0-2.057-0.923-2.057-2.057s0.923-2.057 2.057-2.057 2.057 0.923 2.057 2.057c-0 1.134-0.923 2.057-2.057 2.057z"></path>
<path fill="#000" style="fill: var(--color6, #000)" d="M25.347 25.195c-1.657 0-3.006 1.348-3.006 3.006s1.348 3.006 3.006 3.006c1.657 0 3.006-1.348 3.006-3.006s-1.349-3.006-3.006-3.006zM25.347 30.258c-1.134 0-2.057-0.923-2.057-2.057s0.923-2.057 2.057-2.057c1.134 0 2.057 0.923 2.057 2.057s-0.923 2.057-2.057 2.057z"></path>
<path fill="#000" style="fill: var(--color6, #000)" d="M8.98 26.61c-0.877 0-1.591 0.714-1.591 1.591s0.714 1.591 1.591 1.591c0.877 0 1.591-0.714 1.591-1.591s-0.714-1.591-1.591-1.591zM8.98 28.843c-0.354 0-0.642-0.288-0.642-0.642s0.288-0.642 0.642-0.642 0.642 0.288 0.642 0.642-0.288 0.642-0.642 0.642z"></path>
<path fill="#000" style="fill: var(--color6, #000)" d="M25.347 26.61c-0.877 0-1.591 0.714-1.591 1.591s0.714 1.591 1.591 1.591c0.877 0 1.591-0.714 1.591-1.591s-0.714-1.591-1.591-1.591zM25.347 28.843c-0.354 0-0.642-0.288-0.642-0.642s0.288-0.642 0.642-0.642c0.354 0 0.642 0.288 0.642 0.642s-0.288 0.642-0.642 0.642z"></path>
</symbol>
<symbol id="scart" viewBox="0 0 32 32">
<path fill="#7f7494" style="fill: var(--color1, #7f7494)" d="M26.171 23.751h-17.558c-0.455 0-0.901-0.158-1.236-0.465-0.453-0.416-0.656-1.023-0.553-1.617l0.727-4.105 0.996 0.176-0.726 4.103c-0.048 0.276 0.059 0.561 0.291 0.74 0.138 0.106 0.31 0.157 0.483 0.157h17.703v0.885c0 0.070-0.057 0.126-0.127 0.126z"></path>
<path fill="#2d2128" style="fill: var(--color2, #2d2128)" opacity="0.32" d="M8.554 17.692l-0.996-0.176-0.299 1.692 0.956 0.403z"></path>
<path fill="#78777e" style="fill: var(--color3, #78777e)" d="M7.415 21.209h17.822c0.585 0 1.060 0.474 1.060 1.060v0.976h-17.721c-0.79 0-1.39-0.712-1.255-1.491l0.094-0.545z"></path>
<path fill="#d7d6d9" style="fill: var(--color4, #d7d6d9)" d="M5.995 11.233l-0.852-3.819c-0.018-0.079 0.043-0.154 0.123-0.154h26.045c0.088 0 0.15 0.088 0.118 0.171l-4.036 10.668c-0.018 0.047-0.062 0.079-0.112 0.082l-19.514 0.993-1.772-7.94z"></path>
<path fill="#2d2128" style="fill: var(--color2, #2d2128)" opacity="0.32" d="M31.313 7.26h-2.292l-3.422 9.043c-0.018 0.047-0.062 0.079-0.112 0.082l-18.135 0.923 0.416 1.866 19.514-0.993c0.050-0.003 0.094-0.035 0.112-0.082l4.036-10.668c0.031-0.083-0.030-0.171-0.118-0.171z"></path>
<path fill="#78777e" style="fill: var(--color3, #78777e)" d="M7.53 7.26l0.484-2.847c0.24-1.413-0.848-2.702-2.281-2.702h-5.1c-0.070 0-0.127 0.057-0.127 0.127v1.607c0 0.070 0.057 0.127 0.127 0.127h4.262c0.58 0 1.005 0.546 0.864 1.108l-0.643 2.551c-0.005 0.019-0.005 0.039-0.001 0.059l2.416-0.029z"></path>
<path fill="#78777e" style="fill: var(--color3, #78777e)" d="M11.512 27.789c0 1.398-1.133 2.532-2.532 2.532s-2.532-1.133-2.532-2.532c0-1.398 1.133-2.532 2.532-2.532s2.532 1.133 2.532 2.532z"></path>
<path fill="#2d2128" style="fill: var(--color2, #2d2128)" opacity="0.13" d="M10.22 25.553c0.188 0.354 0.296 0.758 0.296 1.187 0 1.398-1.133 2.532-2.531 2.532-0.429 0-0.833-0.107-1.187-0.296 0.425 0.799 1.267 1.344 2.236 1.344 1.398 0 2.531-1.133 2.531-2.532 0-0.969-0.544-1.81-1.344-2.236z"></path>
<path fill="#78777e" style="fill: var(--color3, #78777e)" d="M27.879 27.789c0 1.398-1.133 2.532-2.532 2.532s-2.532-1.133-2.532-2.532c0-1.398 1.133-2.532 2.532-2.532s2.532 1.133 2.532 2.532z"></path>
<path fill="#78777e" style="fill: var(--color3, #78777e)" d="M30.714 9.323h-25.145l-0.426-1.909c-0.018-0.079 0.043-0.154 0.123-0.154h26.045c0.088 0 0.15 0.088 0.118 0.171l-0.716 1.891z"></path>
<path fill="#3f3c43" style="fill: var(--color5, #3f3c43)" d="M10.097 27.789c0 0.617-0.5 1.116-1.117 1.116s-1.117-0.5-1.117-1.116c0-0.617 0.5-1.116 1.117-1.116s1.117 0.5 1.117 1.116z"></path>
<path fill="#3f3c43" style="fill: var(--color5, #3f3c43)" d="M26.464 27.789c0 0.617-0.5 1.116-1.116 1.116s-1.116-0.5-1.116-1.116c0-0.617 0.5-1.116 1.116-1.116s1.116 0.5 1.116 1.116z"></path>
<path fill="#2d2128" style="fill: var(--color2, #2d2128)" opacity="0.13" d="M26.534 25.553c0.189 0.354 0.296 0.758 0.296 1.187 0 1.398-1.133 2.532-2.532 2.532-0.429 0-0.833-0.107-1.187-0.296 0.425 0.799 1.267 1.344 2.236 1.344 1.398 0 2.532-1.133 2.532-2.532 0-0.969-0.544-1.81-1.344-2.236z"></path>
<path fill="#000" style="fill: var(--color6, #000)" d="M31.91 6.973c-0.095-0.137-0.25-0.218-0.416-0.218h-17.779c-0.279 0-0.506 0.226-0.506 0.506s0.226 0.506 0.506 0.506h17.047l-0.398 1.051h-24.39l-0.235-1.051h5.537c0.279 0 0.506-0.226 0.506-0.506s-0.226-0.506-0.506-0.506h-3.147l0.384-2.256c0.14-0.821-0.088-1.656-0.625-2.292s-1.322-1.001-2.155-1.001h-5.227c-0.279 0-0.506 0.227-0.506 0.506v1.86c0 0.279 0.227 0.506 0.506 0.506h4.389c0.119 0 0.23 0.054 0.303 0.148s0.099 0.215 0.070 0.33l-0.651 2.58c-0 0.002-0.001 0.003-0.001 0.005-0.002 0.007-0.003 0.013-0.004 0.020-0.002 0.011-0.004 0.023-0.006 0.034-0.001 0.006-0.001 0.012-0.002 0.019-0.001 0.012-0.002 0.024-0.002 0.036-0 0.006 0 0.012 0 0.017 0 0.013 0.001 0.025 0.002 0.038 0 0.005 0.001 0.011 0.002 0.016 0.002 0.013 0.004 0.026 0.006 0.039 0.001 0.003 0.001 0.006 0.002 0.010l0.458 2.054c0 0 0 0.001 0 0.001l0.428 1.918c0.053 0.236 0.262 0.396 0.493 0.396 0.037 0 0.074-0.004 0.111-0.012 0.273-0.061 0.444-0.331 0.384-0.604l-0.289-1.294h23.782l-2.974 7.859-18.84 0.959-0.482-2.161c-0.061-0.273-0.331-0.445-0.604-0.384s-0.444 0.331-0.384 0.604l0.553 2.48-0.429 2.482c-0.090 0.519 0.053 1.047 0.392 1.449s0.835 0.633 1.361 0.633h17.721c0.279 0 0.506-0.227 0.506-0.506v-0.976c0-0.863-0.702-1.566-1.566-1.566h-7.957c-0.279 0-0.506 0.227-0.506 0.506s0.227 0.506 0.506 0.506h7.957c0.305 0 0.554 0.248 0.554 0.554v0.47h-17.215c-0.227 0-0.441-0.1-0.587-0.273s-0.208-0.402-0.169-0.625l0.022-0.125h6.852c0.279 0 0.506-0.227 0.506-0.506s-0.226-0.506-0.506-0.506h-6.677l0.181-1.045 19.193-0.977c0.201-0.010 0.376-0.138 0.448-0.326l4.13-10.916c0.059-0.155 0.038-0.33-0.057-0.466zM4.895 3.066h-3.883v-0.849h4.721c0.534 0 1.037 0.234 1.381 0.642s0.49 0.943 0.401 1.47l-0.412 2.426h-1.346l0.492-1.951c0.106-0.42 0.014-0.858-0.253-1.2s-0.668-0.538-1.102-0.538z"></path>
<path fill="#000" style="fill: var(--color6, #000)" d="M9.818 13.297c0.262 0 0.474-0.212 0.474-0.474s-0.212-0.474-0.474-0.474h-6.684c-0.262 0-0.474 0.212-0.474 0.474s0.212 0.474 0.474 0.474h6.684z"></path>
<path fill="#000" style="fill: var(--color6, #000)" d="M8.477 14.726c0-0.262-0.212-0.474-0.474-0.474h-6.684c-0.262 0-0.474 0.212-0.474 0.474s0.212 0.474 0.474 0.474h6.684c0.262 0 0.474-0.212 0.474-0.474z"></path>
<path fill="#000" style="fill: var(--color6, #000)" d="M8.98 24.783c-1.657 0-3.006 1.348-3.006 3.006s1.348 3.006 3.006 3.006 3.006-1.348 3.006-3.006c-0-1.657-1.348-3.006-3.006-3.006zM8.98 29.846c-1.134 0-2.057-0.923-2.057-2.057s0.923-2.057 2.057-2.057 2.057 0.923 2.057 2.057c-0 1.134-0.923 2.057-2.057 2.057z"></path>
<path fill="#000" style="fill: var(--color6, #000)" d="M25.347 24.783c-1.657 0-3.006 1.348-3.006 3.006s1.348 3.006 3.006 3.006c1.657 0 3.006-1.348 3.006-3.006s-1.349-3.006-3.006-3.006zM25.347 29.846c-1.134 0-2.057-0.923-2.057-2.057s0.923-2.057 2.057-2.057c1.134 0 2.057 0.923 2.057 2.057s-0.923 2.057-2.057 2.057z"></path>
<path fill="#000" style="fill: var(--color6, #000)" d="M8.98 26.198c-0.877 0-1.591 0.714-1.591 1.591s0.714 1.591 1.591 1.591c0.877 0 1.591-0.714 1.591-1.591s-0.714-1.591-1.591-1.591zM8.98 28.431c-0.354 0-0.642-0.288-0.642-0.642s0.288-0.642 0.642-0.642 0.642 0.288 0.642 0.642-0.288 0.642-0.642 0.642z"></path>
<path fill="#000" style="fill: var(--color6, #000)" d="M25.347 26.198c-0.877 0-1.591 0.714-1.591 1.591s0.714 1.591 1.591 1.591c0.877 0 1.591-0.714 1.591-1.591s-0.714-1.591-1.591-1.591zM25.347 28.431c-0.354 0-0.642-0.288-0.642-0.642s0.288-0.642 0.642-0.642c0.354 0 0.642 0.288 0.642 0.642s-0.288 0.642-0.642 0.642z"></path>
</symbol>

</defs>
</svg>